# xmcd
#
# Track frame offsets:
#	150
#	17602
#	34087
#	56805
#	77002
#	89432
#	105630
#	126535
#	147267
#	166927
#	183550
#	201765
#	220877
#	236272
#	252115
#	267800
#	285022
#
# Disc length: 4059 seconds
#
# Revision: 0
# Processed by: cddbd v1.5.2PL0 Copyright (c) Steve Scherf et al.
# Submitted via: audiograbber 1.83.01
#
DISCID=e80fd911
DTITLE=Various Artist - Duck's 6: 17 More Dance Favorites
DYEAR=2000
DGENRE=Beach and R'nB
TTITLE0=The O-Tones - Blue Light Boogie
TTITLE1=Jimmy McCracklin - Copyroght on Your Love
TTITLE2=Johnny Rawls - How Much Longer
TTITLE3=Sweet Betty Journey - I Can Find Someone Bettewr
TTITLE4=Emma and the Cosmos - Your Cash Ain't Nothing But Trash
TTITLE5=Dr Zoot - I Got a Thrill
TTITLE6=Johnny Morello - Sugar and Honey
TTITLE7=Johnny Rawls - Back in Your Arms
TTITLE8=The Asylum Street Spankers - Since I Met You Baby
TTITLE9=Kirk Fletcher - I Ain't Doing Nothing Wrong
TTITLE10=Bob Page Project - A Girl Just Like You
TTITLE11=Jimmy Morello - Put Down That Bottle
TTITLE12=The O-Tones - A Fool in Love
TTITLE13=Dr Zoot - Candy
TTITLE14=Erik and the In-Crowd - Until the Real Thing Comes Along
TTITLE15=Johnny Morello - Bye Bye, So Long
TTITLE16=The Chambers Brothers - Travelling Shoes
EXTD=Good music for Carolina Shag
EXTT0=
EXTT1=
EXTT2=
EXTT3=
EXTT4=
EXTT5=
EXTT6=
EXTT7=
EXTT8=
EXTT9=
EXTT10=
EXTT11=
EXTT12=
EXTT13=
EXTT14=
EXTT15=
EXTT16=
PLAYORDER=
